<?xml version="1.0" encoding="utf-8"?>
<!-- Generator: Adobe Illustrator 21.1.0, SVG Export Plug-In . SVG Version: 6.00 Build 0)  -->
<svg version="1.1" id="Layer_1" xmlns="http://www.w3.org/2000/svg" xmlns:xlink="http://www.w3.org/1999/xlink" x="0px" y="0px"
	 viewBox="0 0 462 562" style="enable-background:new 0 0 462 562;" xml:space="preserve">
<style type="text/css">
	.st0{fill:#333333;}
</style>
<path class="st0" d="M383.7,455.8c-17.9,0-34.7-7-47.3-19.6L27.1,126.9C1,100.8,1,58.3,27.1,32.2s68.6-26.1,94.7,0L431,341.5
	c26.1,26.1,26.1,68.6,0,94.6C418.3,448.8,401.5,455.8,383.7,455.8z M74.4,32.1c-12.2,0-24.3,4.6-33.6,13.9
	c-18.5,18.5-18.5,48.6,0,67.1l309.3,309.3c9,9,20.9,13.9,33.6,13.9s24.6-4.9,33.6-13.9c18.5-18.5,18.5-48.6,0-67.1L108,46
	C98.7,36.8,86.6,32.1,74.4,32.1z"/>
<g>
	<path class="st0" d="M316.2,243.7L302.4,230l116-116c18.5-18.5,18.5-48.6,0-67.1s-48.6-18.5-67.1,0L236.9,161.2l-13.8-13.8
		L337.5,33.1C363.6,7,406,7,432.1,33.1s26.1,68.6,0,94.6L316.2,243.7z"/>
	<path class="st0" d="M76.4,455.8c-17.9,0-34.7-7-47.3-19.6C3,410,3,367.6,29.1,341.5L139,231.6l13.8,13.8l-110,109.9
		c-18.5,18.5-18.5,48.6,0,67.1c9,9,20.9,13.9,33.6,13.9s24.6-4.9,33.6-13.9l109.9-109.9l13.8,13.8l-110,109.8
		C111.1,448.8,94.3,455.8,76.4,455.8z"/>
</g>
<g id="Text">
	<g>
		<path class="st0" d="M138.1,520.5L117,488.8h21.8l9.2,17.5l11.3-17.5h21.8l-22.4,31.7l25.3,36.2h-21.5l-13.6-22.1L133,556.7h-21.3
			L138.1,520.5z"/>
		<path class="st0" d="M282.8,488.8h26.1c4.6,0,9,0.9,13,2.8s7.6,4.3,10.6,7.4s5.4,6.7,7.2,10.8c1.7,4.1,2.6,8.4,2.6,12.9
			c0,4.4-0.9,8.7-2.6,12.8s-4.1,7.7-7.1,10.8s-6.6,5.6-10.6,7.5s-8.4,2.8-13.1,2.8h-26.1V488.8z M300.5,541.8h4
			c3.1,0,5.8-0.5,8.2-1.4c2.4-1,4.4-2.3,6.1-4c1.6-1.7,2.9-3.7,3.8-6s1.3-4.8,1.3-7.6c0-2.7-0.5-5.2-1.4-7.6c-0.9-2.3-2.2-4.3-3.8-6
			c-1.7-1.7-3.7-3-6.1-4s-5.1-1.4-8.1-1.4h-4V541.8z"/>
	</g>
</g>
<g id="Circle_Right">
	<path class="st0" d="M384.1,456c-36.9,0-66.9-30-66.9-66.9s30-66.9,66.9-66.9s66.9,30,66.9,66.9S421,456,384.1,456z M384.1,341.6
		c-26.2,0-47.5,21.3-47.5,47.5s21.3,47.5,47.5,47.5s47.4-21.3,47.4-47.5S410.2,341.6,384.1,341.6z"/>
</g>
<g id="Circle_Left">
	<path class="st0" d="M76.3,456c-36.9,0-66.9-30-66.9-66.9s30-66.9,66.9-66.9s66.9,30,66.9,66.9S113.2,456,76.3,456z M76.3,341.6
		c-26.2,0-47.5,21.3-47.5,47.5s21.3,47.5,47.5,47.5s47.4-21.3,47.4-47.5S102.5,341.6,76.3,341.6z"/>
</g>
</svg>
